<mxfile host="app.diagrams.net" modified="2024-04-16T11:17:39.308Z" agent="Mozilla/5.0 (Windows NT 10.0; Win64; x64) AppleWebKit/537.36 (KHTML, like Gecko) Chrome/123.0.0.0 Safari/537.36" version="24.2.5" etag="36bOmv6f-moUt3cmcWfg" type="github">
  <diagram name="PÃ¡gina-1" id="TB0cEyqgyXAEO_K1nqYk">
    <mxGraphModel>
      <root>
        <mxCell id="0" />
        <mxCell id="1" parent="0" />
      </root>
    </mxGraphModel>
  </diagram>
</mxfile>
